<mxfile host="Electron" modified="2024-03-20T12:57:32.214Z" cl_sdt_agent="5.0 (Windows NT 10.0; Win64; x64) AppleWebKit/537.36 (KHTML, like Gecko) draw.io/16.5.1 Chrome/96.0.4664.110 Electron/16.0.7 Safari/537.36" etag="kkHMT3k7bw0AM2D13qaC" agent="Mozilla/5.0 (X11; Linux x86_64) AppleWebKit/537.36 (KHTML, like Gecko) draw.io/23.1.5 Chrome/120.0.6099.109 Electron/28.1.0 Safari/537.36" version="23.1.5" type="device" pages="2">
  <diagram name="ssdt_uvc" id="g4NnvyNmDqsxQBnTHeYj">
    <mxGraphModel dx="1629" dy="946" grid="1" gridSize="5" guides="1" tooltips="1" connect="1" arrows="1" fold="1" page="1" pageScale="1" pageWidth="1169" pageHeight="827" math="0" shadow="0">
      <root>
        <mxCell id="e3tKWp6jtY5RcMoluBMP-0" />
        <mxCell id="e3tKWp6jtY5RcMoluBMP-1" parent="e3tKWp6jtY5RcMoluBMP-0" />
        <mxCell id="e3tKWp6jtY5RcMoluBMP-2" value="&lt;div style=&quot;font-size: 14px;&quot;&gt;SSDT Agent&lt;/div&gt;&lt;div style=&quot;font-size: 14px;&quot;&gt;&lt;i style=&quot;font-size: 14px;&quot;&gt;(uvm_agent)&lt;/i&gt;&lt;/div&gt;" style="rounded=0;whiteSpace=wrap;html=1;fillColor=#fad7ac;strokeColor=#b46504;fontStyle=0;verticalAlign=top;labelPosition=center;verticalLabelPosition=middle;align=left;spacing=10;fontSize=14;" parent="e3tKWp6jtY5RcMoluBMP-1" vertex="1">
          <mxGeometry x="260" y="240" width="420" height="280" as="geometry" />
        </mxCell>
        <mxCell id="e3tKWp6jtY5RcMoluBMP-4" value="Sequencer&lt;br style=&quot;font-size: 12px;&quot;&gt;&lt;font style=&quot;font-size: 12px;&quot;&gt;&lt;font style=&quot;font-size: 12px;&quot;&gt;&lt;i style=&quot;font-size: 12px;&quot;&gt;(uvm_sequencer)&lt;/i&gt;&lt;/font&gt;&lt;br style=&quot;font-size: 12px;&quot;&gt;&lt;/font&gt;" style="rounded=0;whiteSpace=wrap;html=1;fontSize=12;fillColor=#e1d5e7;strokeColor=#9673a6;fontStyle=0" parent="e3tKWp6jtY5RcMoluBMP-1" vertex="1">
          <mxGeometry x="280" y="440" width="120" height="60" as="geometry" />
        </mxCell>
        <mxCell id="e3tKWp6jtY5RcMoluBMP-5" value="Configuration&lt;br style=&quot;font-size: 12px;&quot;&gt;&lt;font style=&quot;font-size: 12px;&quot;&gt;&lt;font style=&quot;font-size: 12px;&quot;&gt;&lt;i style=&quot;font-size: 12px;&quot;&gt;(uvm_object)&lt;/i&gt;&lt;/font&gt;&lt;br style=&quot;font-size: 12px;&quot;&gt;&lt;/font&gt;" style="rounded=0;whiteSpace=wrap;html=1;fontSize=12;fillColor=#d5e8d4;strokeColor=#82b366;fontStyle=0" parent="e3tKWp6jtY5RcMoluBMP-1" vertex="1">
          <mxGeometry x="280" y="340" width="120" height="60" as="geometry" />
        </mxCell>
        <mxCell id="e3tKWp6jtY5RcMoluBMP-6" style="edgeStyle=orthogonalEdgeStyle;rounded=0;orthogonalLoop=1;jettySize=auto;html=1;exitX=1;exitY=0.5;exitDx=0;exitDy=0;fontSize=12;startArrow=classic;startFill=1;endArrow=classic;endFill=1;startSize=6;endSize=6;entryX=0.25;entryY=0;entryDx=0;entryDy=0;fontStyle=0" parent="e3tKWp6jtY5RcMoluBMP-1" source="e3tKWp6jtY5RcMoluBMP-7" target="DZ0AUyYyvfprXr2KzKs8-1" edge="1">
          <mxGeometry relative="1" as="geometry">
            <mxPoint x="642" y="470.9999999999998" as="sourcePoint" />
            <mxPoint x="759" y="381" as="targetPoint" />
            <Array as="points">
              <mxPoint x="620" y="470" />
              <mxPoint x="620" y="440" />
            </Array>
          </mxGeometry>
        </mxCell>
        <mxCell id="e3tKWp6jtY5RcMoluBMP-7" value="Driver&lt;br style=&quot;font-size: 12px;&quot;&gt;&lt;font style=&quot;font-size: 12px;&quot;&gt;&lt;font style=&quot;font-size: 12px;&quot;&gt;&lt;i style=&quot;font-size: 12px;&quot;&gt;(uvm_driver)&lt;/i&gt;&lt;/font&gt;&lt;br style=&quot;font-size: 12px;&quot;&gt;&lt;/font&gt;" style="rounded=0;whiteSpace=wrap;html=1;fontSize=12;fillColor=#e1d5e7;strokeColor=#9673a6;fontStyle=0" parent="e3tKWp6jtY5RcMoluBMP-1" vertex="1">
          <mxGeometry x="440.5" y="440" width="120" height="60" as="geometry" />
        </mxCell>
        <mxCell id="e3tKWp6jtY5RcMoluBMP-8" style="rounded=0;orthogonalLoop=1;jettySize=auto;html=1;exitX=0.5;exitY=0;exitDx=0;exitDy=0;fontSize=12;startArrow=diamond;startFill=1;startSize=14;endSize=15;endArrow=none;endFill=0;fillColor=#f8cecc;strokeColor=#000000;fontStyle=0;entryX=0.573;entryY=0;entryDx=0;entryDy=0;entryPerimeter=0;" parent="e3tKWp6jtY5RcMoluBMP-1" source="e3tKWp6jtY5RcMoluBMP-9" edge="1" target="e3tKWp6jtY5RcMoluBMP-2">
          <mxGeometry relative="1" as="geometry">
            <mxPoint x="520" y="190" as="targetPoint" />
          </mxGeometry>
        </mxCell>
        <mxCell id="e3tKWp6jtY5RcMoluBMP-9" value="Monitor&lt;br style=&quot;font-size: 12px;&quot;&gt;&lt;font style=&quot;font-size: 12px;&quot;&gt;&lt;font style=&quot;font-size: 12px;&quot;&gt;&lt;i style=&quot;font-size: 12px;&quot;&gt;(uvm_monitor)&lt;/i&gt;&lt;/font&gt;&lt;br style=&quot;font-size: 12px;&quot;&gt;&lt;/font&gt;" style="rounded=0;whiteSpace=wrap;html=1;fontSize=12;strokeColor=#9673a6;fillColor=#e1d5e7;fontStyle=0" parent="e3tKWp6jtY5RcMoluBMP-1" vertex="1">
          <mxGeometry x="440.5" y="340" width="120" height="60" as="geometry" />
        </mxCell>
        <mxCell id="e3tKWp6jtY5RcMoluBMP-10" value="" style="endArrow=none;html=1;rounded=0;fontSize=15;startArrow=diamond;startFill=1;endSize=15;startSize=14;fillColor=#f8cecc;strokeColor=#000000;fontStyle=0;" parent="e3tKWp6jtY5RcMoluBMP-1" edge="1">
          <mxGeometry width="50" height="50" relative="1" as="geometry">
            <mxPoint x="500.43" y="240" as="sourcePoint" />
            <mxPoint x="500.43" y="200" as="targetPoint" />
          </mxGeometry>
        </mxCell>
        <mxCell id="DZ0AUyYyvfprXr2KzKs8-2" style="edgeStyle=orthogonalEdgeStyle;rounded=0;orthogonalLoop=1;jettySize=auto;html=1;entryX=0;entryY=0.5;entryDx=0;entryDy=0;startSize=6;endSize=6;fontSize=12;exitX=0.5;exitY=0;exitDx=0;exitDy=0;" parent="e3tKWp6jtY5RcMoluBMP-1" target="e3tKWp6jtY5RcMoluBMP-11" edge="1" source="e3tKWp6jtY5RcMoluBMP-9">
          <mxGeometry relative="1" as="geometry">
            <mxPoint x="525" y="330" as="sourcePoint" />
            <Array as="points">
              <mxPoint x="501" y="290" />
            </Array>
          </mxGeometry>
        </mxCell>
        <mxCell id="e3tKWp6jtY5RcMoluBMP-11" value="Coverage&lt;br style=&quot;font-size: 12px;&quot;&gt;&lt;font style=&quot;font-size: 12px;&quot;&gt;&lt;font style=&quot;font-size: 12px;&quot;&gt;&lt;i style=&quot;font-size: 12px;&quot;&gt;(uvm_subscriber)&lt;/i&gt;&lt;/font&gt;&lt;br style=&quot;font-size: 12px;&quot;&gt;&lt;/font&gt;" style="rounded=0;whiteSpace=wrap;html=1;fontSize=12;strokeColor=#9673a6;fillColor=#e1d5e7;fontStyle=0" parent="e3tKWp6jtY5RcMoluBMP-1" vertex="1">
          <mxGeometry x="540" y="260" width="120" height="60" as="geometry" />
        </mxCell>
        <mxCell id="e3tKWp6jtY5RcMoluBMP-12" style="edgeStyle=orthogonalEdgeStyle;rounded=0;orthogonalLoop=1;jettySize=auto;html=1;exitX=0.75;exitY=0;exitDx=0;exitDy=0;entryX=1;entryY=0.5;entryDx=0;entryDy=0;fontSize=12;startArrow=none;startFill=0;endArrow=classic;endFill=1;startSize=6;endSize=6;fontStyle=0" parent="e3tKWp6jtY5RcMoluBMP-1" source="DZ0AUyYyvfprXr2KzKs8-1" target="e3tKWp6jtY5RcMoluBMP-9" edge="1">
          <mxGeometry relative="1" as="geometry">
            <mxPoint x="760.2729999999999" y="361.02" as="sourcePoint" />
            <Array as="points">
              <mxPoint x="620" y="400" />
              <mxPoint x="620" y="370" />
            </Array>
          </mxGeometry>
        </mxCell>
        <mxCell id="e3tKWp6jtY5RcMoluBMP-13" value="Legend" style="swimlane;fontStyle=1;startSize=23;fontSize=16;swimlaneFillColor=#FFFFFF;" parent="e3tKWp6jtY5RcMoluBMP-1" vertex="1">
          <mxGeometry x="80" y="220" width="160" height="300" as="geometry" />
        </mxCell>
        <mxCell id="e3tKWp6jtY5RcMoluBMP-24" value="" style="endArrow=none;html=1;rounded=0;fontSize=15;startArrow=diamond;startFill=1;endSize=14;startSize=12;fillColor=#f8cecc;strokeColor=#000000;fontStyle=0;labelPosition=right;verticalLabelPosition=middle;align=left;verticalAlign=bottom;" parent="e3tKWp6jtY5RcMoluBMP-13" edge="1">
          <mxGeometry width="50" height="50" relative="1" as="geometry">
            <mxPoint x="37.97999999999989" y="242" as="sourcePoint" />
            <mxPoint x="37.980000000000004" y="230" as="targetPoint" />
          </mxGeometry>
        </mxCell>
        <mxCell id="cX964QT4cNWJ510GXuzu-5" value="TLM Analysis Port" style="edgeLabel;html=1;align=left;verticalAlign=middle;resizable=0;points=[];labelPosition=right;verticalLabelPosition=middle;spacing=10;" parent="e3tKWp6jtY5RcMoluBMP-24" vertex="1" connectable="0">
          <mxGeometry x="0.0556" y="-5" relative="1" as="geometry">
            <mxPoint x="-6" as="offset" />
          </mxGeometry>
        </mxCell>
        <mxCell id="e3tKWp6jtY5RcMoluBMP-26" style="edgeStyle=orthogonalEdgeStyle;rounded=0;orthogonalLoop=1;jettySize=auto;html=1;entryX=0;entryY=0.25;entryDx=0;entryDy=0;fontSize=15;startArrow=none;startFill=0;endArrow=box;endFill=1;startSize=10;endSize=9;labelBackgroundColor=default;labelBorderColor=none;strokeColor=#000000;fontStyle=0;" parent="e3tKWp6jtY5RcMoluBMP-13" edge="1">
          <mxGeometry relative="1" as="geometry">
            <mxPoint x="39.980000000000004" y="258" as="sourcePoint" />
            <mxPoint x="43.980000000000004" y="258" as="targetPoint" />
            <Array as="points">
              <mxPoint x="35.980000000000004" y="258" />
              <mxPoint x="35.980000000000004" y="258" />
            </Array>
          </mxGeometry>
        </mxCell>
        <mxCell id="cX964QT4cNWJ510GXuzu-6" value="TLM Port" style="edgeLabel;html=1;align=left;verticalAlign=middle;resizable=0;points=[];spacing=10;labelPosition=right;verticalLabelPosition=middle;" parent="e3tKWp6jtY5RcMoluBMP-26" vertex="1" connectable="0">
          <mxGeometry x="0.1111" relative="1" as="geometry">
            <mxPoint as="offset" />
          </mxGeometry>
        </mxCell>
        <mxCell id="e3tKWp6jtY5RcMoluBMP-28" style="edgeStyle=orthogonalEdgeStyle;rounded=0;orthogonalLoop=1;jettySize=auto;html=1;fontSize=15;startArrow=oval;startFill=1;endArrow=none;endFill=0;startSize=12;endSize=10;labelBackgroundColor=default;labelBorderColor=none;strokeColor=#000000;fontStyle=0;labelPosition=right;verticalLabelPosition=middle;align=left;verticalAlign=middle;" parent="e3tKWp6jtY5RcMoluBMP-13" edge="1">
          <mxGeometry relative="1" as="geometry">
            <mxPoint x="37.980000000000004" y="278.72" as="sourcePoint" />
            <mxPoint x="37.980000000000004" y="279" as="targetPoint" />
            <Array as="points">
              <mxPoint x="37.980000000000004" y="275" />
              <mxPoint x="37.980000000000004" y="275" />
            </Array>
          </mxGeometry>
        </mxCell>
        <mxCell id="cX964QT4cNWJ510GXuzu-7" value="TLM Export" style="edgeLabel;html=1;align=left;verticalAlign=middle;resizable=0;points=[];labelPosition=right;verticalLabelPosition=middle;spacing=10;" parent="e3tKWp6jtY5RcMoluBMP-28" vertex="1" connectable="0">
          <mxGeometry x="1" y="2" relative="1" as="geometry">
            <mxPoint as="offset" />
          </mxGeometry>
        </mxCell>
        <mxCell id="cX964QT4cNWJ510GXuzu-3" value="" style="group" parent="e3tKWp6jtY5RcMoluBMP-13" vertex="1" connectable="0">
          <mxGeometry x="20" y="135" width="120" height="76" as="geometry" />
        </mxCell>
        <mxCell id="e3tKWp6jtY5RcMoluBMP-15" value="&lt;div&gt;&lt;font style=&quot;font-size: 14px;&quot;&gt;&amp;lt;Abstract Name&amp;gt;&lt;/font&gt;&lt;/div&gt;" style="rounded=0;whiteSpace=wrap;html=1;fontSize=11;fillColor=#f5f5f5;fontColor=#333333;strokeColor=#666666;fontStyle=0" parent="cX964QT4cNWJ510GXuzu-3" vertex="1">
          <mxGeometry y="16" width="120" height="60" as="geometry" />
        </mxCell>
        <mxCell id="e3tKWp6jtY5RcMoluBMP-16" value="&lt;i style=&quot;font-size: 12px;&quot;&gt;Python &lt;/i&gt;class" style="text;html=1;strokeColor=none;fillColor=none;align=center;verticalAlign=middle;whiteSpace=wrap;rounded=0;fontSize=12;" parent="cX964QT4cNWJ510GXuzu-3" vertex="1">
          <mxGeometry width="120" height="16" as="geometry" />
        </mxCell>
        <mxCell id="cX964QT4cNWJ510GXuzu-4" value="" style="group" parent="e3tKWp6jtY5RcMoluBMP-13" vertex="1" connectable="0">
          <mxGeometry x="20" y="36" width="120" height="76" as="geometry" />
        </mxCell>
        <mxCell id="e3tKWp6jtY5RcMoluBMP-20" value="" style="rounded=0;whiteSpace=wrap;html=1;strokeColor=none;fillColor=#d5e8d4;" parent="cX964QT4cNWJ510GXuzu-4" vertex="1">
          <mxGeometry x="40" y="16" width="40" height="60" as="geometry" />
        </mxCell>
        <mxCell id="e3tKWp6jtY5RcMoluBMP-21" value="" style="rounded=0;whiteSpace=wrap;html=1;strokeColor=none;fillColor=#e1d5e7;" parent="cX964QT4cNWJ510GXuzu-4" vertex="1">
          <mxGeometry x="80" y="16" width="40" height="60" as="geometry" />
        </mxCell>
        <mxCell id="e3tKWp6jtY5RcMoluBMP-19" value="" style="rounded=0;whiteSpace=wrap;html=1;strokeColor=none;fillColor=#fad7ac;" parent="cX964QT4cNWJ510GXuzu-4" vertex="1">
          <mxGeometry y="16" width="40" height="60" as="geometry" />
        </mxCell>
        <mxCell id="e3tKWp6jtY5RcMoluBMP-23" value="&lt;i style=&quot;font-size: 12px;&quot;&gt;Python&amp;nbsp;&lt;/i&gt;class" style="text;html=1;strokeColor=none;fillColor=none;align=center;verticalAlign=middle;whiteSpace=wrap;rounded=0;fontSize=12;" parent="cX964QT4cNWJ510GXuzu-4" vertex="1">
          <mxGeometry width="119" height="16" as="geometry" />
        </mxCell>
        <mxCell id="e3tKWp6jtY5RcMoluBMP-22" value="&lt;div&gt;&lt;font style=&quot;font-size: 14px;&quot;&gt;&amp;lt;Abstract Name&amp;gt;&lt;/font&gt;&lt;span style=&quot;font-size: 15px&quot;&gt; &lt;/span&gt;&lt;font style=&quot;font-size: 12px;&quot;&gt;&lt;i&gt;(&amp;lt;PyUVM base class&amp;gt;)&lt;/i&gt;&lt;/font&gt;&lt;/div&gt;" style="rounded=0;whiteSpace=wrap;html=1;fontSize=11;fillColor=none;fontColor=#333333;strokeColor=default;fontStyle=0" parent="cX964QT4cNWJ510GXuzu-4" vertex="1">
          <mxGeometry y="16" width="120" height="60" as="geometry" />
        </mxCell>
        <mxCell id="e3tKWp6jtY5RcMoluBMP-31" value="SSDT Interface&lt;font style=&quot;font-size: 12px;&quot;&gt;&lt;br style=&quot;font-size: 12px;&quot;&gt;&lt;/font&gt;" style="rounded=0;whiteSpace=wrap;html=1;fontSize=12;strokeColor=#666666;fillColor=#E8E8E8;fontStyle=0" parent="e3tKWp6jtY5RcMoluBMP-1" vertex="1">
          <mxGeometry x="720" y="390" width="120" height="60" as="geometry" />
        </mxCell>
        <mxCell id="e3tKWp6jtY5RcMoluBMP-32" value="SSDT Item&lt;br style=&quot;font-size: 12px;&quot;&gt;&lt;font style=&quot;font-size: 12px;&quot;&gt;&lt;font style=&quot;font-size: 12px;&quot;&gt;(uvm_sequence_item)&lt;/font&gt;&lt;br style=&quot;font-size: 12px;&quot;&gt;&lt;/font&gt;" style="rounded=0;whiteSpace=wrap;html=1;fontSize=12;fillColor=#d5e8d4;strokeColor=#82b366;fontStyle=0" parent="e3tKWp6jtY5RcMoluBMP-1" vertex="1">
          <mxGeometry x="500" y="550" width="140" height="60" as="geometry" />
        </mxCell>
        <mxCell id="e3tKWp6jtY5RcMoluBMP-33" value="" style="rounded=0;whiteSpace=wrap;html=1;fontSize=12;fillColor=#d5e8d4;strokeColor=#82b366;fontStyle=0" parent="e3tKWp6jtY5RcMoluBMP-1" vertex="1">
          <mxGeometry x="300.5" y="540" width="140" height="60" as="geometry" />
        </mxCell>
        <mxCell id="e3tKWp6jtY5RcMoluBMP-34" value="" style="rounded=0;whiteSpace=wrap;html=1;fontSize=12;fillColor=#d5e8d4;strokeColor=#82b366;fontStyle=0" parent="e3tKWp6jtY5RcMoluBMP-1" vertex="1">
          <mxGeometry x="310.5" y="550" width="140" height="60" as="geometry" />
        </mxCell>
        <mxCell id="e3tKWp6jtY5RcMoluBMP-35" value="SSDT Sequence Lib&lt;br style=&quot;font-size: 12px;&quot;&gt;&lt;font style=&quot;font-size: 12px;&quot;&gt;&lt;font style=&quot;font-size: 12px;&quot;&gt;(uvm_sequence)&lt;/font&gt;&lt;br style=&quot;font-size: 12px;&quot;&gt;&lt;/font&gt;" style="rounded=0;whiteSpace=wrap;html=1;fontSize=12;fillColor=#d5e8d4;strokeColor=#82b366;fontStyle=0" parent="e3tKWp6jtY5RcMoluBMP-1" vertex="1">
          <mxGeometry x="320.5" y="560" width="140" height="60" as="geometry" />
        </mxCell>
        <mxCell id="e3tKWp6jtY5RcMoluBMP-39" style="rounded=0;orthogonalLoop=1;jettySize=auto;html=1;entryX=0;entryY=0.5;entryDx=0;entryDy=0;fontSize=12;startArrow=oval;startFill=1;endArrow=box;endFill=1;startSize=10;endSize=8;labelBackgroundColor=default;labelBorderColor=none;strokeColor=#000000;fontStyle=0;" parent="e3tKWp6jtY5RcMoluBMP-1" target="e3tKWp6jtY5RcMoluBMP-7" edge="1">
          <mxGeometry relative="1" as="geometry">
            <mxPoint x="405" y="470" as="sourcePoint" />
            <mxPoint x="460.5" y="472" as="targetPoint" />
          </mxGeometry>
        </mxCell>
        <mxCell id="cX964QT4cNWJ510GXuzu-0" style="edgeStyle=orthogonalEdgeStyle;rounded=0;orthogonalLoop=1;jettySize=auto;html=1;exitX=0.5;exitY=1;exitDx=0;exitDy=0;entryX=0;entryY=0.5;entryDx=0;entryDy=0;startArrow=classic;startFill=1;fontSize=12;" parent="e3tKWp6jtY5RcMoluBMP-1" source="DZ0AUyYyvfprXr2KzKs8-1" target="e3tKWp6jtY5RcMoluBMP-31" edge="1">
          <mxGeometry relative="1" as="geometry" />
        </mxCell>
        <mxCell id="DZ0AUyYyvfprXr2KzKs8-1" value="&lt;font style=&quot;font-size: 12px;&quot;&gt;&lt;font style=&quot;font-size: 12px;&quot;&gt;Virtual IF&lt;/font&gt;&lt;br style=&quot;font-size: 12px;&quot;&gt;&lt;/font&gt;" style="rounded=0;whiteSpace=wrap;html=1;fontSize=12;fillColor=#e8e8e8;strokeColor=#666666;fontStyle=0;rotation=-90;" parent="e3tKWp6jtY5RcMoluBMP-1" vertex="1">
          <mxGeometry x="630" y="410" width="80" height="20" as="geometry" />
        </mxCell>
        <mxCell id="e3tKWp6jtY5RcMoluBMP-37" value="" style="group;fontSize=12;" parent="e3tKWp6jtY5RcMoluBMP-1" vertex="1" connectable="0">
          <mxGeometry x="410" y="470" width="60" as="geometry" />
        </mxCell>
        <mxCell id="e3tKWp6jtY5RcMoluBMP-38" value="" style="endArrow=classic;startArrow=none;html=1;rounded=0;fontStyle=0;startFill=0;fontSize=12;" parent="e3tKWp6jtY5RcMoluBMP-37" edge="1">
          <mxGeometry width="50" height="50" relative="1" as="geometry">
            <mxPoint x="-10" as="sourcePoint" />
            <mxPoint x="20" as="targetPoint" />
          </mxGeometry>
        </mxCell>
      </root>
    </mxGraphModel>
  </diagram>
  <diagram id="x-MpacvpfjYSmt_XykhA" name="sdt_uvc">
    <mxGraphModel dx="1629" dy="946" grid="1" gridSize="4" guides="1" tooltips="1" connect="1" arrows="1" fold="1" page="1" pageScale="1" pageWidth="1169" pageHeight="827" math="0" shadow="0">
      <root>
        <mxCell id="0" />
        <mxCell id="1" parent="0" />
        <mxCell id="Wxy6E_NCNDnAYiZF5Oho-1" value="" style="rounded=0;whiteSpace=wrap;html=1;fillColor=#FAD7AC;strokeColor=#b46504;fontStyle=0" parent="1" vertex="1">
          <mxGeometry x="272" y="224" width="432" height="304" as="geometry" />
        </mxCell>
        <mxCell id="Wxy6E_NCNDnAYiZF5Oho-2" value="&lt;div style=&quot;&quot;&gt;&lt;span style=&quot;font-size: 15px;&quot;&gt;SDT Agent&lt;/span&gt;&lt;/div&gt;&lt;div style=&quot;&quot;&gt;&lt;span style=&quot;&quot;&gt;&lt;font style=&quot;font-size: 12px&quot;&gt;(uvm_agent)&lt;/font&gt;&lt;/span&gt;&lt;/div&gt;" style="text;html=1;strokeColor=none;fillColor=none;align=center;verticalAlign=middle;whiteSpace=wrap;rounded=0;fontStyle=0;spacing=7;" parent="1" vertex="1">
          <mxGeometry x="272" y="224" width="112" height="48" as="geometry" />
        </mxCell>
        <mxCell id="Wxy6E_NCNDnAYiZF5Oho-4" value="Agent Sequencer &lt;font&gt;&lt;font style=&quot;font-size: 12px&quot;&gt;(uvm_sequencer)&lt;/font&gt;&lt;br&gt;&lt;/font&gt;" style="rounded=0;whiteSpace=wrap;html=1;fontSize=15;fillColor=#e1d5e7;strokeColor=#9673a6;fontStyle=0" parent="1" vertex="1">
          <mxGeometry x="288.5" y="432" width="144" height="80" as="geometry" />
        </mxCell>
        <mxCell id="Wxy6E_NCNDnAYiZF5Oho-5" value="Agent Configuration &lt;font&gt;&lt;font style=&quot;font-size: 12px&quot;&gt;(uvm_object)&lt;/font&gt;&lt;br&gt;&lt;/font&gt;" style="rounded=0;whiteSpace=wrap;html=1;fontSize=15;fillColor=#d5e8d4;strokeColor=#82b366;fontStyle=0" parent="1" vertex="1">
          <mxGeometry x="288.5" y="301" width="160.5" height="85" as="geometry" />
        </mxCell>
        <mxCell id="Wxy6E_NCNDnAYiZF5Oho-6" style="edgeStyle=orthogonalEdgeStyle;rounded=0;orthogonalLoop=1;jettySize=auto;html=1;exitX=1;exitY=0.5;exitDx=0;exitDy=0;fontSize=15;startArrow=classic;startFill=1;endArrow=classic;endFill=1;startSize=10;endSize=10;entryX=0;entryY=0.75;entryDx=0;entryDy=0;fontStyle=0" parent="1" source="Wxy6E_NCNDnAYiZF5Oho-7" target="Wxy6E_NCNDnAYiZF5Oho-18" edge="1">
          <mxGeometry relative="1" as="geometry">
            <mxPoint x="642" y="470.9999999999998" as="sourcePoint" />
            <mxPoint x="759" y="381" as="targetPoint" />
            <Array as="points">
              <mxPoint x="688" y="472" />
              <mxPoint x="688" y="412" />
            </Array>
          </mxGeometry>
        </mxCell>
        <mxCell id="Wxy6E_NCNDnAYiZF5Oho-7" value="Agent Driver &lt;font&gt;&lt;font style=&quot;font-size: 12px&quot;&gt;(uvm_driver)&lt;/font&gt;&lt;br&gt;&lt;/font&gt;" style="rounded=0;whiteSpace=wrap;html=1;fontSize=15;fillColor=#e1d5e7;strokeColor=#9673a6;fontStyle=0" parent="1" vertex="1">
          <mxGeometry x="512" y="432" width="144" height="80" as="geometry" />
        </mxCell>
        <mxCell id="Wxy6E_NCNDnAYiZF5Oho-8" style="rounded=0;orthogonalLoop=1;jettySize=auto;html=1;exitX=0.5;exitY=0;exitDx=0;exitDy=0;fontSize=15;startArrow=diamond;startFill=1;startSize=15;endSize=15;endArrow=none;endFill=0;fillColor=#f8cecc;strokeColor=#000000;fontStyle=0" parent="1" source="Wxy6E_NCNDnAYiZF5Oho-9" edge="1">
          <mxGeometry relative="1" as="geometry">
            <mxPoint x="552" y="200" as="targetPoint" />
          </mxGeometry>
        </mxCell>
        <mxCell id="Wxy6E_NCNDnAYiZF5Oho-9" value="Agent Monitor &lt;font&gt;&lt;font style=&quot;font-size: 12px&quot;&gt;(uvm_monitor)&lt;/font&gt;&lt;br&gt;&lt;/font&gt;" style="rounded=0;whiteSpace=wrap;html=1;fontSize=15;strokeColor=#9673a6;fillColor=#e1d5e7;fontStyle=0" parent="1" vertex="1">
          <mxGeometry x="480" y="256" width="144" height="63" as="geometry" />
        </mxCell>
        <mxCell id="Wxy6E_NCNDnAYiZF5Oho-10" value="" style="endArrow=none;html=1;rounded=0;fontSize=15;startArrow=diamond;startFill=1;endSize=15;startSize=15;fillColor=#f8cecc;strokeColor=#000000;fontStyle=0" parent="1" edge="1">
          <mxGeometry width="50" height="50" relative="1" as="geometry">
            <mxPoint x="551.8299999999999" y="208" as="sourcePoint" />
            <mxPoint x="551.8299999999999" y="168" as="targetPoint" />
          </mxGeometry>
        </mxCell>
        <mxCell id="Wxy6E_NCNDnAYiZF5Oho-11" value="Agent Coverage &lt;font&gt;&lt;font style=&quot;font-size: 12px&quot;&gt;(uvm_subscriber)&lt;/font&gt;&lt;br&gt;&lt;/font&gt;" style="rounded=0;whiteSpace=wrap;html=1;fontSize=15;strokeColor=#9673a6;fillColor=#e1d5e7;fontStyle=0" parent="1" vertex="1">
          <mxGeometry x="480" y="340" width="144" height="64" as="geometry" />
        </mxCell>
        <mxCell id="Wxy6E_NCNDnAYiZF5Oho-12" style="edgeStyle=orthogonalEdgeStyle;rounded=0;orthogonalLoop=1;jettySize=auto;html=1;exitX=0;exitY=0.25;exitDx=0;exitDy=0;entryX=1;entryY=0.5;entryDx=0;entryDy=0;fontSize=15;startArrow=none;startFill=0;endArrow=classic;endFill=1;startSize=15;endSize=10;fontStyle=0" parent="1" source="Wxy6E_NCNDnAYiZF5Oho-18" target="Wxy6E_NCNDnAYiZF5Oho-9" edge="1">
          <mxGeometry relative="1" as="geometry">
            <mxPoint x="760.2729999999999" y="361.02" as="sourcePoint" />
          </mxGeometry>
        </mxCell>
        <mxCell id="Wxy6E_NCNDnAYiZF5Oho-13" value="Legend" style="swimlane;fontStyle=1;startSize=23;fontSize=16;swimlaneFillColor=#FFFFFF;" parent="1" vertex="1">
          <mxGeometry x="80" y="224" width="160" height="304" as="geometry" />
        </mxCell>
        <mxCell id="Wxy6E_NCNDnAYiZF5Oho-25" value="" style="group" parent="Wxy6E_NCNDnAYiZF5Oho-13" vertex="1" connectable="0">
          <mxGeometry x="16" y="132" width="128" height="80" as="geometry" />
        </mxCell>
        <mxCell id="Wxy6E_NCNDnAYiZF5Oho-14" value="&lt;div&gt;&lt;font style=&quot;font-size: 14px;&quot;&gt;&amp;lt;Abstract Name&amp;gt;&lt;/font&gt;&lt;/div&gt;" style="rounded=0;whiteSpace=wrap;html=1;fontSize=11;fillColor=#f5f5f5;fontColor=#333333;strokeColor=#666666;fontStyle=0" parent="Wxy6E_NCNDnAYiZF5Oho-25" vertex="1">
          <mxGeometry y="16" width="128" height="64" as="geometry" />
        </mxCell>
        <mxCell id="Wxy6E_NCNDnAYiZF5Oho-24" value="&lt;i style=&quot;font-size: 12px;&quot;&gt;Python &lt;/i&gt;class" style="text;html=1;strokeColor=none;fillColor=none;align=center;verticalAlign=middle;whiteSpace=wrap;rounded=0;fontSize=12;" parent="Wxy6E_NCNDnAYiZF5Oho-25" vertex="1">
          <mxGeometry width="128" height="16" as="geometry" />
        </mxCell>
        <mxCell id="Wxy6E_NCNDnAYiZF5Oho-26" value="" style="group" parent="Wxy6E_NCNDnAYiZF5Oho-13" vertex="1" connectable="0">
          <mxGeometry x="16" y="36" width="128" height="80" as="geometry" />
        </mxCell>
        <mxCell id="Wxy6E_NCNDnAYiZF5Oho-32" value="" style="group" parent="Wxy6E_NCNDnAYiZF5Oho-26" vertex="1" connectable="0">
          <mxGeometry x="1" y="16" width="126" height="64" as="geometry" />
        </mxCell>
        <mxCell id="Wxy6E_NCNDnAYiZF5Oho-29" value="" style="rounded=0;whiteSpace=wrap;html=1;strokeColor=none;fillColor=#fad7ac;" parent="Wxy6E_NCNDnAYiZF5Oho-32" vertex="1">
          <mxGeometry width="42" height="64" as="geometry" />
        </mxCell>
        <mxCell id="Wxy6E_NCNDnAYiZF5Oho-30" value="" style="rounded=0;whiteSpace=wrap;html=1;strokeColor=none;fillColor=#d5e8d4;" parent="Wxy6E_NCNDnAYiZF5Oho-32" vertex="1">
          <mxGeometry x="42" width="42" height="64" as="geometry" />
        </mxCell>
        <mxCell id="Wxy6E_NCNDnAYiZF5Oho-31" value="" style="rounded=0;whiteSpace=wrap;html=1;strokeColor=none;fillColor=#e1d5e7;" parent="Wxy6E_NCNDnAYiZF5Oho-32" vertex="1">
          <mxGeometry x="84" width="42" height="64" as="geometry" />
        </mxCell>
        <mxCell id="Wxy6E_NCNDnAYiZF5Oho-27" value="&lt;div&gt;&lt;font style=&quot;font-size: 14px;&quot;&gt;&amp;lt;Abstract Name&amp;gt;&lt;/font&gt;&lt;span style=&quot;font-size: 15px&quot;&gt; &lt;/span&gt;&lt;font style=&quot;font-size: 12px;&quot;&gt;(&amp;lt;PyUVM base class&amp;gt;)&lt;/font&gt;&lt;/div&gt;" style="rounded=0;whiteSpace=wrap;html=1;fontSize=11;fillColor=none;fontColor=#333333;strokeColor=default;fontStyle=0" parent="Wxy6E_NCNDnAYiZF5Oho-26" vertex="1">
          <mxGeometry y="16" width="128" height="64" as="geometry" />
        </mxCell>
        <mxCell id="Wxy6E_NCNDnAYiZF5Oho-28" value="&lt;i style=&quot;font-size: 12px;&quot;&gt;Python&amp;nbsp;&lt;/i&gt;class" style="text;html=1;strokeColor=none;fillColor=none;align=center;verticalAlign=middle;whiteSpace=wrap;rounded=0;fontSize=12;" parent="Wxy6E_NCNDnAYiZF5Oho-26" vertex="1">
          <mxGeometry width="128" height="16" as="geometry" />
        </mxCell>
        <mxCell id="G13rckBN6fxfMNTIdq8W-1" value="" style="endArrow=none;html=1;rounded=0;fontSize=15;startArrow=diamond;startFill=1;endSize=14;startSize=12;fillColor=#f8cecc;strokeColor=#000000;fontStyle=0" parent="Wxy6E_NCNDnAYiZF5Oho-13" edge="1">
          <mxGeometry width="50" height="50" relative="1" as="geometry">
            <mxPoint x="25.999999999999886" y="245" as="sourcePoint" />
            <mxPoint x="26" y="233" as="targetPoint" />
          </mxGeometry>
        </mxCell>
        <mxCell id="G13rckBN6fxfMNTIdq8W-4" value="TLM Analysis Port" style="edgeLabel;html=1;align=left;verticalAlign=middle;resizable=0;points=[];labelPosition=right;verticalLabelPosition=middle;spacing=2;" parent="G13rckBN6fxfMNTIdq8W-1" vertex="1" connectable="0">
          <mxGeometry x="0.3667" y="-5" relative="1" as="geometry">
            <mxPoint x="3" as="offset" />
          </mxGeometry>
        </mxCell>
        <mxCell id="G13rckBN6fxfMNTIdq8W-2" style="edgeStyle=orthogonalEdgeStyle;rounded=0;orthogonalLoop=1;jettySize=auto;html=1;entryX=0;entryY=0.25;entryDx=0;entryDy=0;fontSize=15;startArrow=none;startFill=0;endArrow=box;endFill=1;startSize=10;endSize=9;labelBackgroundColor=default;labelBorderColor=none;strokeColor=#000000;fontStyle=0;" parent="Wxy6E_NCNDnAYiZF5Oho-13" edge="1">
          <mxGeometry relative="1" as="geometry">
            <mxPoint x="28" y="261" as="sourcePoint" />
            <mxPoint x="32" y="261" as="targetPoint" />
            <Array as="points">
              <mxPoint x="24" y="261" />
              <mxPoint x="24" y="261" />
            </Array>
          </mxGeometry>
        </mxCell>
        <mxCell id="G13rckBN6fxfMNTIdq8W-5" value="&lt;div style=&quot;&quot;&gt;TLM Port&lt;/div&gt;" style="edgeLabel;html=1;align=left;verticalAlign=middle;resizable=0;points=[];labelPosition=right;verticalLabelPosition=middle;" parent="G13rckBN6fxfMNTIdq8W-2" vertex="1" connectable="0">
          <mxGeometry x="-0.2287" y="3" relative="1" as="geometry">
            <mxPoint x="9" y="3" as="offset" />
          </mxGeometry>
        </mxCell>
        <mxCell id="G13rckBN6fxfMNTIdq8W-3" style="edgeStyle=orthogonalEdgeStyle;rounded=0;orthogonalLoop=1;jettySize=auto;html=1;fontSize=15;startArrow=oval;startFill=1;endArrow=none;endFill=0;startSize=12;endSize=10;labelBackgroundColor=default;labelBorderColor=none;strokeColor=#000000;fontStyle=0;labelPosition=right;verticalLabelPosition=middle;align=left;verticalAlign=middle;" parent="Wxy6E_NCNDnAYiZF5Oho-13" edge="1">
          <mxGeometry relative="1" as="geometry">
            <mxPoint x="26" y="281.72" as="sourcePoint" />
            <mxPoint x="26" y="282" as="targetPoint" />
            <Array as="points">
              <mxPoint x="26" y="278" />
              <mxPoint x="26" y="278" />
            </Array>
          </mxGeometry>
        </mxCell>
        <mxCell id="G13rckBN6fxfMNTIdq8W-6" value="TLM Export" style="edgeLabel;html=1;align=left;verticalAlign=middle;resizable=0;points=[];labelPosition=right;verticalLabelPosition=middle;" parent="G13rckBN6fxfMNTIdq8W-3" vertex="1" connectable="0">
          <mxGeometry x="1" y="4" relative="1" as="geometry">
            <mxPoint x="4" as="offset" />
          </mxGeometry>
        </mxCell>
        <mxCell id="Wxy6E_NCNDnAYiZF5Oho-17" value="" style="endArrow=classic;html=1;rounded=0;endSize=10;fontStyle=0;entryX=1;entryY=0.5;entryDx=0;entryDy=0;edgeStyle=orthogonalEdgeStyle;exitX=0;exitY=0.25;exitDx=0;exitDy=0;" parent="1" source="Wxy6E_NCNDnAYiZF5Oho-18" target="Wxy6E_NCNDnAYiZF5Oho-11" edge="1">
          <mxGeometry width="50" height="50" relative="1" as="geometry">
            <mxPoint x="691" y="360.9999999999998" as="sourcePoint" />
            <mxPoint x="621" y="361" as="targetPoint" />
          </mxGeometry>
        </mxCell>
        <mxCell id="Wxy6E_NCNDnAYiZF5Oho-18" value="SDT Interface&lt;font&gt;&lt;br&gt;&lt;/font&gt;" style="rounded=0;whiteSpace=wrap;html=1;fontSize=15;strokeColor=#666666;fillColor=#E8E8E8;fontStyle=0" parent="1" vertex="1">
          <mxGeometry x="752" y="352" width="128" height="80" as="geometry" />
        </mxCell>
        <mxCell id="Wxy6E_NCNDnAYiZF5Oho-19" value="SDT Item&lt;br&gt;&lt;font&gt;&lt;font style=&quot;font-size: 12px&quot;&gt;(uvm_sequence_item)&lt;/font&gt;&lt;br&gt;&lt;/font&gt;" style="rounded=0;whiteSpace=wrap;html=1;fontSize=15;fillColor=#d5e8d4;strokeColor=#82b366;fontStyle=0" parent="1" vertex="1">
          <mxGeometry x="518.5" y="554" width="147" height="85" as="geometry" />
        </mxCell>
        <mxCell id="Wxy6E_NCNDnAYiZF5Oho-20" value="" style="rounded=0;whiteSpace=wrap;html=1;fontSize=15;fillColor=#d5e8d4;strokeColor=#82b366;fontStyle=0" parent="1" vertex="1">
          <mxGeometry x="310.5" y="544" width="147" height="85" as="geometry" />
        </mxCell>
        <mxCell id="Wxy6E_NCNDnAYiZF5Oho-21" value="" style="rounded=0;whiteSpace=wrap;html=1;fontSize=15;fillColor=#d5e8d4;strokeColor=#82b366;fontStyle=0" parent="1" vertex="1">
          <mxGeometry x="320.5" y="554" width="147" height="85" as="geometry" />
        </mxCell>
        <mxCell id="Wxy6E_NCNDnAYiZF5Oho-22" value="SDT Sequence Lib&lt;br&gt;&lt;font&gt;&lt;font style=&quot;font-size: 12px&quot;&gt;(uvm_sequence)&lt;/font&gt;&lt;br&gt;&lt;/font&gt;" style="rounded=0;whiteSpace=wrap;html=1;fontSize=15;fillColor=#d5e8d4;strokeColor=#82b366;fontStyle=0" parent="1" vertex="1">
          <mxGeometry x="330.5" y="564" width="147" height="85" as="geometry" />
        </mxCell>
        <mxCell id="GgEhIP197RLDttCCNabd-3" value="" style="group" parent="1" vertex="1" connectable="0">
          <mxGeometry x="440" y="452" width="66" as="geometry" />
        </mxCell>
        <mxCell id="9P7e9wsa7fvnxnNNKj26-2" value="" style="group" parent="GgEhIP197RLDttCCNabd-3" vertex="1" connectable="0">
          <mxGeometry x="6" y="20" width="60" as="geometry" />
        </mxCell>
        <mxCell id="Wxy6E_NCNDnAYiZF5Oho-16" value="" style="endArrow=classic;startArrow=none;html=1;rounded=0;fontStyle=0;startFill=0;" parent="9P7e9wsa7fvnxnNNKj26-2" edge="1">
          <mxGeometry width="50" height="50" relative="1" as="geometry">
            <mxPoint x="60" as="sourcePoint" />
            <mxPoint as="targetPoint" />
          </mxGeometry>
        </mxCell>
        <mxCell id="Wxy6E_NCNDnAYiZF5Oho-35" style="edgeStyle=orthogonalEdgeStyle;rounded=0;orthogonalLoop=1;jettySize=auto;html=1;entryX=0;entryY=0.25;entryDx=0;entryDy=0;fontSize=15;startArrow=oval;startFill=1;endArrow=box;endFill=1;startSize=13;endSize=10;labelBackgroundColor=default;labelBorderColor=none;strokeColor=#000000;fontStyle=0;" parent="1" edge="1">
          <mxGeometry relative="1" as="geometry">
            <mxPoint x="440" y="472" as="sourcePoint" />
            <mxPoint x="512" y="472" as="targetPoint" />
            <Array as="points">
              <mxPoint x="452" y="472" />
              <mxPoint x="452" y="472" />
            </Array>
          </mxGeometry>
        </mxCell>
      </root>
    </mxGraphModel>
  </diagram>
</mxfile>
